<?xml version="1.0" encoding="utf-8"?>
<!-- Designed by Vexels.com - 2020 All Rights Reserved - https://vexels.com/terms-and-conditions/  -->
<svg version="1.1" id="Layer_1" xmlns="http://www.w3.org/2000/svg" xmlns:xlink="http://www.w3.org/1999/xlink" x="0px" y="0px"
	 viewBox="0 0 1200 1200" enable-background="new 0 0 1200 1200" xml:space="preserve">
<g>
	<path fill="#FAF8F9" d="M1147.231,722.159c-67.122-78.081-141.711-101.928-228.024-72.892c-0.278,0.09-0.551,0.193-0.815,0.309
		c-0.833,0.35-72.98,30.571-145.702,38.524l61.023-53.024c8.197-7.122,11.76-17.754,9.298-27.746
		c-2.458-9.992-10.551-17.754-21.121-20.257l-204.191-48.365c-11.431-2.707-23.075-4.148-34.718-4.404
		c-6.417-27.076-8.629-68.276-4.985-95.196c0.036-0.278,0.063-0.56,0.081-0.842l1.719-28.391c0.013-0.233,0.022-0.461,0.022-0.694
		c0-113.719-92.518-206.237-206.237-206.237c-80.221,0-149.838,46.071-183.921,113.115L83.539,305.595
		c-7.615-0.761-14.459,3.872-16.59,11.241c-2.135,7.368,1.164,14.925,8.022,18.372l70.159,35.225l-82.282,15.136
		c-7.552,1.383-12.834,7.709-12.848,15.382c-0.018,7.682,5.242,14.03,12.79,15.44l106.366,19.918
		c1.468,11.175,3.814,22.199,7.089,32.964c2.856,9.405,6.433,18.694,10.551,27.441c1.473,3.268,3.174,6.218,4.817,9.07
		c2.283,3.957,4.441,7.7,5.238,11.151c1.553,6.742,0.506,14.562-0.725,21.318c-3.604,19.795-5.6,37.442-6.106,53.943
		c-1.826,59.574,10.354,119.95,35.222,174.592c65.833,144.661,208.936,230.267,358.391,230.267
		c54.377,0,109.609-11.339,162.245-35.293c66.86-30.43,123.518-78.636,164.031-139.457c31.135,11.629,64.629,15.543,95.584,15.54
		c60.9,0,111.96-15.113,115.751-16.263c4.781-1.455,8.071-5.837,8.13-10.833c0.058-4.996-3.129-9.455-7.874-11.021
		c-60.698-19.985-94.203-36.826-112.707-49.434c16.362-23.182,86.781-18.109,127.355-9.451c4.848,1.025,9.745-1.133,12.248-5.363
		C1150.906,731.247,1150.436,725.888,1147.231,722.159z"/>
	<g>
		<path fill="#D0C3C7" d="M487.269,561.284c21.976-14.179,46.883-22.923,72.463-25.889c-6.307-29.546-8.273-70.542-4.508-98.927
			l1.674-27.625c-0.105-59.24-28.478-111.948-72.299-145.406c20.604,27.578,33.715,60.964,38.156,98.706
			c9.168,64.176-32.088,114.601-22.92,178.777c0,9.168-32.088,22.92-45.84,36.672c-17.26,13.807-29.306,35.413-28.341,58.943
			C436.529,606.759,458.214,580.029,487.269,561.284z"/>
		<path fill="#D0C3C7" d="M966.197,738.401c-3.568-7.843-4.038-15.44-1.41-22.589c0.859-3.693,3.532-6.876,7.373-8.223
			c4.275-1.509,9.123-0.336,12.221,2.968c1.209,1.285,4.924,6.017,2.019,12.906c-0.282,0.672-0.873,2.073,0.663,5.448
			c0.761,1.675,2.093,3.876,4.354,6.552c21.882-27.866,78.141-26.832,115.4-22.511c-8.447-7.913-17.036-14.817-25.74-20.932
			c-22.609-4.46-45.22-6.671-67.829-4.41c-36.672,4.584-73.344,27.504-50.424,68.76c23.18,38.633,69.15,41.452,110.473,52.36
			c1.072-0.18,2.155-0.36,3.196-0.543C1013.51,784.402,976.467,760.98,966.197,738.401z"/>
		<path fill="#D0C3C7" d="M696.948,788.458c41.256-22.92,77.929-55.008,128.353-73.344c13.987-3.497,25.27-9.697,31.889-20.563
			c-33.122,9.222-73.882,17.725-113.009,18.322l-68.868,59.841c-29.035,25.233-66.057,39.715-104.661,41.103
			C610.286,833.303,659.331,805.176,696.948,788.458z"/>
		<path fill="#D0C3C7" d="M855.984,790.785c-140.236,140.837-380.036,153.216-530.342,20.593
			c-51.962-47.966-76.051-116.84-111.756-179.278c3.34,43.048,14.245,85.707,32.216,125.196
			c84.545,185.792,304.48,268.148,490.285,183.603c61.759-28.107,114.254-72.339,152.235-128.066
			c-11.162-5.788-21.852-12.735-31.77-21.147C856.527,791.41,856.27,791.088,855.984,790.785z"/>
	</g>
	<g>
		<path fill="#FFA14A" d="M105.384,401.049l62.028,11.617c-0.018-1.161-0.063-2.32-0.063-3.483c0-6.649,0.345-13.218,0.965-19.708
			L105.384,401.049z"/>
		<path fill="#FFA14A" d="M120.144,332.239l53.399,26.809c1.784-7.119,3.917-14.102,6.422-20.908L120.144,332.239z"/>
	</g>
	<g>
		<circle fill="#0C2A44" cx="331.443" cy="342.558" r="38.029"/>
		<path fill="#0C2A44" d="M1147.231,722.159c-67.122-78.081-141.711-101.928-228.024-72.892c-0.278,0.09-0.551,0.193-0.815,0.309
			c-0.833,0.35-72.98,30.571-145.702,38.524l61.023-53.024c8.197-7.122,11.76-17.754,9.298-27.746
			c-2.458-9.992-10.551-17.754-21.121-20.257l-204.191-48.365c-11.431-2.707-23.075-4.148-34.718-4.404
			c-6.417-27.076-8.629-68.276-4.985-95.196c0.036-0.278,0.063-0.56,0.081-0.842l1.719-28.391c0.013-0.233,0.022-0.461,0.022-0.694
			c0-113.719-92.518-206.237-206.237-206.237c-80.221,0-149.838,46.071-183.921,113.115L83.539,305.595
			c-7.615-0.761-14.459,3.872-16.59,11.241c-2.135,7.368,1.164,14.925,8.022,18.372l70.159,35.225l-82.282,15.136
			c-7.552,1.383-12.834,7.709-12.848,15.382c-0.018,7.682,5.242,14.03,12.79,15.44l106.366,19.918
			c1.468,11.175,3.814,22.199,7.089,32.964c2.856,9.405,6.433,18.694,10.551,27.441c1.473,3.268,3.174,6.218,4.817,9.07
			c2.283,3.957,4.441,7.7,5.238,11.151c1.553,6.742,0.506,14.562-0.725,21.318c-3.604,19.795-5.6,37.442-6.106,53.943
			c-1.826,59.574,10.354,119.95,35.222,174.592c65.833,144.661,208.936,230.267,358.391,230.267
			c54.377,0,109.609-11.339,162.245-35.293c66.86-30.43,123.518-78.636,164.031-139.457c31.135,11.629,64.629,15.543,95.584,15.54
			c60.9,0,111.96-15.113,115.751-16.263c4.781-1.455,8.071-5.837,8.13-10.833c0.058-4.996-3.129-9.455-7.874-11.021
			c-60.698-19.985-94.203-36.826-112.707-49.434c16.362-23.182,86.781-18.109,127.355-9.451c4.848,1.025,9.745-1.133,12.248-5.363
			C1150.906,731.247,1150.436,725.888,1147.231,722.159z M120.144,332.239l59.821,5.9c-2.505,6.806-4.638,13.789-6.422,20.908
			L120.144,332.239z M105.384,401.049l62.93-11.575c-0.62,6.49-0.965,13.059-0.965,19.708c0,1.163,0.045,2.322,0.063,3.483
			L105.384,401.049z M991.416,735.462c-2.261-2.675-3.592-4.877-4.354-6.552c-1.535-3.375-0.945-4.776-0.663-5.448
			c2.905-6.889-0.81-11.621-2.019-12.906c-3.098-3.304-7.946-4.477-12.221-2.968c-3.841,1.347-6.513,4.53-7.373,8.223
			c-2.628,7.149-2.158,14.746,1.41,22.589c10.269,22.58,47.313,46.001,110.294,69.786c-52.045,9.141-145.615,16.228-204.813-33.977
			c-4.826-4.101-12.06-3.501-16.152,1.325c-4.096,4.826-3.501,12.06,1.325,16.152c9.918,8.412,20.608,15.36,31.77,21.147
			c-37.982,55.727-90.476,99.959-152.235,128.066c-185.805,84.545-405.74,2.189-490.285-183.603
			c-23.422-51.467-34.895-108.316-33.172-164.398c0.466-15.346,2.346-31.878,5.748-50.541c1.647-9.061,2.995-19.778,0.506-30.566
			c-1.562-6.786-4.83-12.454-7.713-17.454c-1.428-2.48-2.775-4.817-3.859-7.212c-3.725-7.919-6.898-16.165-9.437-24.518
			c-5.247-17.239-7.906-35.213-7.906-53.424c0-101.081,82.235-183.316,183.312-183.316c100.97,0,183.137,82.047,183.316,182.976
			l-1.674,27.625c-3.765,28.385-1.8,69.382,4.508,98.927c-25.579,2.966-50.487,11.71-72.463,25.889
			c-35.361,22.813-59.839,57.444-67.153,95.011c-1.209,6.214,2.847,12.23,9.061,13.439c6.227,1.204,12.23-2.843,13.439-9.061
			c6.128-31.475,26.931-60.68,57.077-80.131c33.315-21.488,74.392-28.605,112.725-19.531l204.191,48.365
			c2.261,0.537,3.738,1.755,4.15,3.434s-0.327,3.443-2.077,4.969l-32.205,27.983c-41.31-21.049-166.758-57.339-225.208-52.081
			c-6.308,0.569-10.954,6.137-10.39,12.44c0.569,6.307,6.29,10.995,12.44,10.39c49.845-4.548,159.051,25.444,204.33,45.611
			l-24.715,21.476c-26.864-7.616-121.625-33.539-154.442-29.721c-6.285,0.721-10.802,6.401-10.077,12.691
			c0.721,6.285,6.375,10.865,12.691,10.077c22.421-2.554,90.159,13.933,131.059,24.999l-61.882,53.771
			c-25.996,22.589-59.413,35.24-94.098,35.62c-6.33,0.072-11.402,5.255-11.335,11.585c0.072,6.285,5.188,11.335,11.456,11.335
			c0.045,0,0.09,0,0.13,0c40.119-0.443,78.788-15.091,108.88-41.243l68.868-59.841c83.672-1.276,174.831-38.706,182.73-42.015
			c66.719-22.307,125.833-8.55,179.905,42.093C1069.557,708.63,1013.298,707.596,991.416,735.462z"/>
	</g>
</g>
</svg>
